<?xml version="1.0" standalone="no"?>
<!DOCTYPE svg PUBLIC "-//W3C//DTD SVG 20010904//EN"
 "http://www.w3.org/TR/2001/REC-SVG-20010904/DTD/svg10.dtd">
<svg version="1.0" xmlns="http://www.w3.org/2000/svg"
 width="1600.000000pt" height="1200.000000pt" viewBox="0 0 1600.000000 1200.000000"
 preserveAspectRatio="xMidYMid meet">

<g transform="translate(0.000000,1200.000000) scale(0.100000,-0.100000)"
fill="#000000" stroke="none">
<path d="M2888 9763 c17 -2 47 -2 65 0 17 2 3 4 -33 4 -36 0 -50 -2 -32 -4z"/>
<path d="M3023 9763 c20 -2 54 -2 75 0 20 2 3 4 -38 4 -41 0 -58 -2 -37 -4z"/>
<path d="M2783 9743 c9 -2 23 -2 30 0 6 3 -1 5 -18 5 -16 0 -22 -2 -12 -5z"/>
<path d="M3173 9743 c9 -2 23 -2 30 0 6 3 -1 5 -18 5 -16 0 -22 -2 -12 -5z"/>
<path d="M5268 9733 c-43 -27 -61 -88 -38 -123 8 -11 9 -8 4 12 -8 35 20 92
52 107 57 26 79 14 217 -123 48 -47 92 -86 98 -86 16 0 -202 210 -229 221 -35
14 -74 11 -104 -8z"/>
<path d="M2710 9726 c-19 -6 -50 -19 -69 -28 -19 -10 -40 -18 -48 -18 -7 0
-13 -4 -13 -10 0 -5 -5 -10 -11 -10 -38 0 -245 -189 -287 -262 -29 -52 -20
-48 18 7 40 57 152 169 205 202 22 14 42 29 45 33 7 9 129 65 173 80 20 6 37
13 37 16 0 6 -9 4 -50 -10z"/>
<path d="M3220 9736 c0 -3 17 -10 38 -16 42 -14 165 -71 172 -80 3 -4 22 -18
43 -32 36 -24 144 -124 177 -165 30 -35 76 -108 98 -155 13 -27 25 -48 27 -48
8 0 -19 66 -37 92 -10 14 -18 31 -18 37 0 6 -4 11 -10 11 -5 0 -10 7 -10 16 0
23 -207 225 -255 249 -22 11 -42 22 -45 25 -8 9 -69 36 -120 54 -47 16 -60 19
-60 12z"/>
<path d="M5240 9584 c0 -6 9 -20 20 -32 23 -24 25 -38 8 -45 -7 -3 4 -6 25 -6
20 -1 37 0 37 2 0 2 -20 23 -45 47 -25 24 -45 40 -45 34z"/>
<path d="M11550 9509 c-47 -33 -93 -66 -103 -74 -9 -8 -19 -15 -22 -15 -3 0
-70 -45 -150 -100 -144 -100 -144 -100 -207 -101 -50 -1 -57 -3 -33 -9 75 -19
80 -17 330 156 231 159 289 194 323 194 21 0 81 -41 86 -60 3 -11 4 -10 5 3 0
10 -11 29 -25 42 -21 19 -38 25 -73 25 -40 -1 -58 -9 -131 -61z"/>
<path d="M5723 9395 l117 -115 265 0 c170 0 265 -4 265 -10 0 -5 7 -10 16 -10
9 0 29 -14 45 -31 16 -17 29 -27 29 -23 -1 17 -26 42 -63 63 -35 20 -52 21
-287 21 l-249 0 -68 59 c-38 32 -90 82 -118 110 -27 28 -54 51 -60 51 -5 0 43
-52 108 -115z"/>
<path d="M4970 9489 c-32 -13 -60 -39 -60 -55 0 -7 13 1 29 17 28 28 33 29
123 30 51 0 102 4 113 9 29 12 -174 11 -205 -1z"/>
<path d="M11770 9426 c0 -8 -12 -24 -27 -35 -16 -12 -41 -31 -57 -43 l-29 -22
29 -13 c16 -7 46 -12 66 -13 20 0 40 -4 43 -10 3 -5 24 -10 45 -10 21 0 42 -4
45 -10 3 -5 23 -10 43 -9 33 1 31 2 -23 15 -33 8 -74 19 -91 24 -17 6 -45 10
-63 10 -48 0 -51 25 -7 66 31 29 48 64 31 64 -3 0 -5 -6 -5 -14z"/>
<path d="M2681 9373 c18 -27 36 -49 41 -51 4 -2 8 -8 8 -13 0 -11 71 -113 82
-117 5 -2 8 -8 8 -13 0 -5 20 -35 43 -66 87 -115 128 -183 122 -201 -3 -9 -32
-45 -65 -80 -59 -62 -77 -88 -43 -61 9 8 31 29 47 47 16 19 42 47 58 64 34 37
35 46 3 80 -14 15 -25 30 -25 33 0 3 -5 11 -10 18 -33 38 -80 107 -80 116 0 5
-4 11 -8 13 -4 2 -39 48 -77 103 -38 55 -73 102 -77 103 -4 2 -8 10 -8 18 0 8
-4 14 -9 14 -5 0 -13 9 -16 20 -3 11 -11 20 -16 20 -6 0 5 -21 22 -47z"/>
<path d="M4910 9354 c0 -24 29 -54 53 -54 9 0 19 -4 22 -10 3 -5 42 -10 85
-10 48 0 82 -4 86 -11 12 -19 225 8 232 30 5 14 -2 14 -288 -5 -83 -5 -100 -4
-130 13 -19 11 -41 30 -47 44 -12 22 -13 23 -13 3z"/>
<path d="M2232 9314 c-12 -18 -22 -42 -22 -51 0 -10 11 4 25 31 30 59 28 68
-3 20z"/>
<path d="M10560 9279 c-37 -15 -80 -60 -80 -83 0 -17 4 -15 16 10 16 34 78 71
129 77 28 4 28 4 -5 5 -19 0 -46 -4 -60 -9z"/>
<path d="M10666 9271 c-4 -5 20 -12 51 -15 32 -3 83 -8 113 -12 91 -10 50 6
-55 21 -116 18 -103 17 -109 6z"/>
<path d="M5060 9249 c-19 -6 -43 -19 -52 -31 -29 -33 -20 -38 13 -7 24 23 40
29 74 29 24 0 47 5 50 10 8 12 -37 12 -85 -1z"/>
<path d="M11975 9250 c3 -5 12 -10 19 -10 26 0 56 -45 56 -86 0 -33 -5 -42
-33 -61 -35 -24 -120 -32 -132 -13 -3 6 -25 10 -47 10 -22 0 -57 4 -77 9 -20
5 -67 15 -106 21 -38 6 -78 14 -87 17 -11 2 -18 -1 -18 -9 0 -8 20 -19 48 -26
83 -22 216 -63 234 -73 10 -5 26 -9 36 -9 10 0 24 -6 31 -12 11 -11 13 -10 7
0 -9 15 -71 42 -97 42 -10 0 -21 5 -25 11 -5 8 24 9 105 4 l113 -7 29 28 c24
23 29 36 29 75 0 40 -4 51 -31 73 -30 25 -66 36 -54 16z"/>
<path d="M2192 9220 c0 -14 2 -19 5 -12 2 6 2 18 0 25 -3 6 -5 1 -5 -13z"/>
<path d="M10910 9230 c8 -5 33 -10 55 -10 29 0 36 3 25 10 -8 5 -33 10 -55 10
-29 0 -36 -3 -25 -10z"/>
<path d="M3780 9210 c0 -11 4 -20 9 -20 5 0 7 9 4 20 -3 11 -7 20 -9 20 -2 0
-4 -9 -4 -20z"/>
<path d="M6461 9174 c0 -11 3 -14 6 -6 3 7 2 16 -1 19 -3 4 -6 -2 -5 -13z"/>
<path d="M2171 9164 c0 -11 3 -14 6 -6 3 7 2 16 -1 19 -3 4 -6 -2 -5 -13z"/>
<path d="M3802 9150 c0 -19 2 -27 5 -17 2 9 2 25 0 35 -3 9 -5 1 -5 -18z"/>
<path d="M4981 9149 c-1 -9 9 -31 22 -50 l23 -34 99 -5 c83 -4 99 -8 96 -20
-20 -73 -9 -110 40 -134 37 -19 49 -20 49 -6 0 6 -8 10 -19 10 -34 0 -71 38
-71 75 0 50 30 68 154 90 58 10 106 23 106 28 0 9 -35 7 -195 -15 -129 -17
-227 -20 -251 -7 -13 6 -30 28 -38 48 -8 20 -15 29 -15 20z"/>
<path d="M10461 9134 c0 -11 3 -14 6 -6 3 7 2 16 -1 19 -3 4 -6 -2 -5 -13z"/>
<path d="M2155 9109 c-4 -6 -5 -12 -2 -15 2 -3 7 2 10 11 7 17 1 20 -8 4z"/>
<path d="M6460 9106 c0 -24 -42 -68 -84 -87 -36 -16 -38 -19 -15 -19 33 0 95
55 104 93 4 15 4 27 1 27 -3 0 -6 -6 -6 -14z"/>
<path d="M3823 9065 c0 -27 2 -38 4 -22 2 15 2 37 0 50 -2 12 -4 0 -4 -28z"/>
<path d="M10480 9087 c0 -18 9 -32 43 -66 9 -10 41 -23 70 -29 169 -35 203
-39 193 -23 -3 5 -29 11 -58 15 -158 18 -206 36 -231 88 -11 21 -17 26 -17 15z"/>
<path d="M2143 9005 c0 -22 2 -30 4 -17 2 12 2 30 0 40 -3 9 -5 -1 -4 -23z"/>
<path d="M5951 8993 c0 -10 9 -38 20 -63 11 -25 17 -34 14 -20 -18 82 -18 79
6 89 23 9 22 10 -8 10 -25 1 -33 -3 -32 -16z"/>
<path d="M11922 8980 c0 -14 2 -19 5 -12 2 6 2 18 0 25 -3 6 -5 1 -5 -13z"/>
<path d="M10801 8956 c9 -8 99 -12 99 -4 0 4 -23 8 -52 8 -28 0 -49 -2 -47 -4z"/>
<path d="M11460 8943 c19 -8 43 -19 52 -24 10 -5 23 -9 29 -9 6 0 40 -14 75
-31 62 -29 64 -31 64 -69 0 -29 -6 -43 -22 -54 -26 -18 -77 -21 -122 -6 -91
29 -162 47 -173 43 -7 -3 -13 -13 -12 -22 0 -10 2 -11 6 -3 5 14 49 17 57 3 3
-5 20 -11 38 -14 18 -3 51 -10 73 -17 82 -24 99 -24 134 6 31 26 33 31 29 76
-5 44 -3 48 16 48 12 0 43 -7 70 -15 27 -8 61 -15 76 -15 31 0 80 34 80 55 0
9 -9 6 -24 -10 -30 -30 -70 -41 -99 -27 -12 5 -65 22 -117 37 -143 41 -163 47
-188 56 -13 5 -35 9 -50 8 -26 0 -26 -1 8 -16z"/>
<path d="M10925 8926 c18 -13 18 -14 -2 -42 -11 -16 -23 -36 -26 -44 -4 -8
-16 -28 -26 -45 -11 -16 -20 -37 -20 -45 0 -8 22 25 50 74 27 50 55 96 61 103
8 10 3 13 -23 13 -30 0 -31 -1 -14 -14z"/>
<path d="M5420 8920 l-85 -6 103 -2 c98 -2 102 -3 103 -24 1 -18 2 -19 6 -5 5
20 -14 48 -31 45 -6 -1 -49 -5 -96 -8z"/>
<path d="M6002 8850 c0 -14 2 -19 5 -12 2 6 2 18 0 25 -3 6 -5 1 -5 -13z"/>
<path d="M2142 8830 c0 -19 2 -27 5 -17 2 9 2 25 0 35 -3 9 -5 1 -5 -18z"/>
<path d="M5560 8839 c0 -9 7 -32 15 -50 18 -44 19 -26 0 26 -8 22 -14 33 -15
24z"/>
<path d="M3823 8770 c0 -25 2 -35 4 -22 2 12 2 32 0 45 -2 12 -4 2 -4 -23z"/>
<path d="M6022 8790 c0 -14 2 -19 5 -12 2 6 2 18 0 25 -3 6 -5 1 -5 -13z"/>
<path d="M6042 8735 c0 -16 2 -22 5 -12 2 9 2 23 0 30 -3 6 -5 -1 -5 -18z"/>
<path d="M11332 8740 c0 -14 2 -19 5 -12 2 6 2 18 0 25 -3 6 -5 1 -5 -13z"/>
<path d="M2779 8679 c-35 -40 -66 -77 -68 -83 -2 -6 20 14 48 44 28 30 61 65
73 77 12 12 20 25 17 28 -3 3 -34 -27 -70 -66z"/>
<path d="M5590 8740 c0 -8 5 -22 10 -30 9 -13 10 -13 10 0 0 8 -5 22 -10 30
-9 13 -10 13 -10 0z"/>
<path d="M10831 8728 c-1 -10 -5 -18 -10 -18 -5 0 -11 -8 -15 -17 -3 -10 -19
-42 -36 -72 -47 -84 -30 -69 23 20 27 44 46 86 43 92 -2 7 -5 4 -5 -5z"/>
<path d="M11275 8637 c-22 -45 -43 -83 -47 -85 -5 -2 -8 -13 -8 -25 0 -11 23
23 51 77 27 54 49 102 47 106 -2 5 -21 -28 -43 -73z"/>
<path d="M3802 8680 c0 -19 2 -27 5 -17 2 9 2 25 0 35 -3 9 -5 1 -5 -18z"/>
<path d="M6062 8680 c0 -14 2 -19 5 -12 2 6 2 18 0 25 -3 6 -5 1 -5 -13z"/>
<path d="M2172 8670 c0 -14 2 -19 5 -12 2 6 2 18 0 25 -3 6 -5 1 -5 -13z"/>
<path d="M3781 8629 c-2 -25 -51 -119 -102 -194 -48 -72 -113 -138 -184 -191
-22 -16 -42 -31 -45 -34 -3 -3 -18 -12 -35 -20 -16 -8 -32 -17 -35 -21 -3 -3
-20 -11 -38 -18 -18 -8 -30 -16 -27 -19 8 -8 92 36 165 87 62 43 200 177 200
194 0 4 9 17 20 29 28 31 92 167 87 187 -4 13 -5 13 -6 0z"/>
<path d="M5631 8624 c0 -11 3 -14 6 -6 3 7 2 16 -1 19 -3 4 -6 -2 -5 -13z"/>
<path d="M6081 8624 c0 -11 3 -14 6 -6 3 7 2 16 -1 19 -3 4 -6 -2 -5 -13z"/>
<path d="M2192 8610 c0 -14 2 -19 5 -12 2 6 2 18 0 25 -3 6 -5 1 -5 -13z"/>
<path d="M6091 8584 c0 -11 3 -14 6 -6 3 7 2 16 -1 19 -3 4 -6 -2 -5 -13z"/>
<path d="M2211 8579 c0 -9 6 -30 14 -45 14 -27 15 -27 15 -6 0 12 -4 22 -9 22
-5 0 -12 10 -14 23 -2 12 -5 15 -6 6z"/>
<path d="M5652 8565 c0 -16 2 -22 5 -12 2 9 2 23 0 30 -3 6 -5 -1 -5 -18z"/>
<path d="M6111 8534 c0 -11 3 -14 6 -6 3 7 2 16 -1 19 -3 4 -6 -2 -5 -13z"/>
<path d="M10720 8535 c0 -8 -4 -15 -10 -15 -5 0 -10 -6 -10 -12 0 -7 -9 -24
-20 -38 -11 -14 -20 -29 -20 -33 0 -15 19 3 32 31 8 15 22 39 32 55 11 16 14
27 7 27 -6 0 -11 -7 -11 -15z"/>
<path d="M5671 8514 c0 -12 6 -37 14 -55 10 -25 14 -29 15 -13 0 11 -4 24 -9
30 -5 5 -11 20 -14 34 -4 21 -4 22 -6 4z"/>
<path d="M11163 8424 c-23 -46 -39 -84 -35 -84 8 0 87 159 81 164 -2 2 -23
-34 -46 -80z"/>
<path d="M2250 8496 c0 -13 34 -66 42 -66 12 0 10 3 -17 40 -14 19 -25 30 -25
26z"/>
<path d="M6132 8475 c0 -16 2 -22 5 -12 2 9 2 23 0 30 -3 6 -5 -1 -5 -18z"/>
<path d="M6152 8425 c0 -16 2 -22 5 -12 2 9 2 23 0 30 -3 6 -5 -1 -5 -18z"/>
<path d="M2300 8412 c0 -27 218 -222 248 -222 6 0 12 -3 14 -7 4 -11 97 -57
103 -52 2 3 -19 17 -48 32 -116 60 -137 76 -239 180 -43 43 -78 74 -78 69z"/>
<path d="M10642 8408 c-7 -7 -12 -16 -12 -21 0 -5 -9 -22 -21 -38 -11 -16 -19
-34 -17 -40 2 -6 10 2 18 18 8 15 23 41 33 56 20 29 19 45 -1 25z"/>
<path d="M6172 8365 c0 -16 2 -22 5 -12 2 9 2 23 0 30 -3 6 -5 -1 -5 -18z"/>
<path d="M6191 8314 c0 -11 3 -14 6 -6 3 7 2 16 -1 19 -3 4 -6 -2 -5 -13z"/>
<path d="M11111 8314 c0 -11 3 -14 6 -6 3 7 2 16 -1 19 -3 4 -6 -2 -5 -13z"/>
<path d="M5741 8294 c0 -11 3 -14 6 -6 3 7 2 16 -1 19 -3 4 -6 -2 -5 -13z"/>
<path d="M10571 8294 c-1 -11 -35 -72 -73 -132 -9 -15 -17 -34 -17 -42 -1 -8
5 -4 13 10 7 14 30 54 50 89 20 35 35 69 32 75 -3 8 -5 8 -5 0z"/>
<path d="M11092 8280 c0 -14 2 -19 5 -12 2 6 2 18 0 25 -3 6 -5 1 -5 -13z"/>
<path d="M6200 8273 c0 -4 5 -15 10 -23 8 -13 10 -13 10 2 0 9 -4 20 -10 23
-5 3 -10 3 -10 -2z"/>
<path d="M5762 8235 c0 -16 2 -22 5 -12 2 9 2 23 0 30 -3 6 -5 -1 -5 -18z"/>
<path d="M11051 8207 c-14 -29 -35 -69 -48 -89 -13 -21 -23 -44 -23 -53 0 -8
-4 -15 -10 -15 -5 0 -10 -10 -10 -22 0 -21 1 -21 15 6 8 15 15 34 15 41 0 7 4
15 8 17 11 4 83 149 80 159 -2 4 -14 -16 -27 -44z"/>
<path d="M5782 8180 c0 -19 2 -27 5 -17 2 9 2 25 0 35 -3 9 -5 1 -5 -18z"/>
<path d="M6242 8160 c0 -14 2 -19 5 -12 2 6 2 18 0 25 -3 6 -5 1 -5 -13z"/>
<path d="M5802 8120 c0 -14 2 -19 5 -12 2 6 2 18 0 25 -3 6 -5 1 -5 -13z"/>
<path d="M2685 8120 c3 -5 13 -10 21 -10 8 0 12 5 9 10 -3 6 -13 10 -21 10 -8
0 -12 -4 -9 -10z"/>
<path d="M3270 8120 c-13 -8 -13 -10 2 -10 9 0 20 5 23 10 8 13 -5 13 -25 0z"/>
<path d="M6262 8105 c0 -16 2 -22 5 -12 2 9 2 23 0 30 -3 6 -5 -1 -5 -18z"/>
<path d="M2730 8106 c0 -2 11 -6 25 -8 13 -3 22 -1 19 3 -5 9 -44 13 -44 5z"/>
<path d="M3205 8100 c-7 -12 2 -12 30 0 19 8 19 9 -2 9 -12 1 -25 -3 -28 -9z"/>
<path d="M10435 8057 c-39 -68 -42 -75 -22 -58 10 7 17 18 17 23 0 6 9 23 21
39 11 16 19 33 17 39 -2 5 -16 -14 -33 -43z"/>
<path d="M2818 8083 c12 -2 32 -2 45 0 12 2 2 4 -23 4 -25 0 -35 -2 -22 -4z"/>
<path d="M3118 8083 c12 -2 32 -2 45 0 12 2 2 4 -23 4 -25 0 -35 -2 -22 -4z"/>
<path d="M5821 8064 c0 -11 3 -14 6 -6 3 7 2 16 -1 19 -3 4 -6 -2 -5 -13z"/>
<path d="M2963 8063 c15 -2 39 -2 55 0 15 2 2 4 -28 4 -30 0 -43 -2 -27 -4z"/>
<path d="M6282 8050 c0 -14 2 -19 5 -12 2 6 2 18 0 25 -3 6 -5 1 -5 -13z"/>
<path d="M5844 7991 c6 -22 15 -43 20 -48 8 -8 2 18 -15 65 -14 37 -18 25 -5
-17z"/>
<path d="M6302 7995 c0 -16 2 -22 5 -12 2 9 2 23 0 30 -3 6 -5 -1 -5 -18z"/>
<path d="M10923 7962 c-13 -25 -21 -48 -18 -50 2 -2 14 17 26 42 12 26 20 48
18 50 -2 2 -14 -17 -26 -42z"/>
<path d="M10384 7968 c-5 -7 -14 -22 -20 -33 -6 -11 -20 -36 -31 -55 -82 -140
-97 -168 -107 -187 -6 -13 -14 -23 -18 -23 -5 0 -8 -4 -8 -10 0 -5 -25 -50
-55 -101 -31 -50 -54 -96 -53 -101 2 -5 13 8 24 29 49 89 79 141 105 180 16
23 29 44 29 47 0 3 20 40 45 82 25 41 45 80 45 85 0 5 5 9 10 9 6 0 10 5 10
11 0 6 9 24 21 41 12 16 19 31 16 34 -3 3 -9 -1 -13 -8z"/>
<path d="M6320 7943 c0 -18 20 -66 25 -61 3 3 -1 20 -9 39 -9 19 -15 29 -16
22z"/>
<path d="M5872 7910 c0 -14 2 -19 5 -12 2 6 2 18 0 25 -3 6 -5 1 -5 -13z"/>
<path d="M10880 7879 c-6 -11 -10 -25 -8 -30 2 -5 8 4 15 21 13 34 9 40 -7 9z"/>
<path d="M5892 7860 c0 -14 2 -19 5 -12 2 6 2 18 0 25 -3 6 -5 1 -5 -13z"/>
<path d="M6351 7844 c0 -11 3 -14 6 -6 3 7 2 16 -1 19 -3 4 -6 -2 -5 -13z"/>
<path d="M10851 7814 c0 -11 3 -14 6 -6 3 7 2 16 -1 19 -3 4 -6 -2 -5 -13z"/>
<path d="M5912 7800 c0 -14 2 -19 5 -12 2 6 2 18 0 25 -3 6 -5 1 -5 -13z"/>
<path d="M6371 7794 c0 -11 3 -14 6 -6 3 7 2 16 -1 19 -3 4 -6 -2 -5 -13z"/>
<path d="M10787 7701 c-26 -53 -48 -100 -47 -106 0 -5 19 28 43 75 23 47 46
88 50 91 5 4 7 13 5 21 -1 8 -25 -28 -51 -81z"/>
<path d="M5932 7740 c0 -14 2 -19 5 -12 2 6 2 18 0 25 -3 6 -5 1 -5 -13z"/>
<path d="M6392 7735 c0 -16 2 -22 5 -12 2 9 2 23 0 30 -3 6 -5 -1 -5 -18z"/>
<path d="M5946 7685 c4 -8 8 -15 10 -15 2 0 4 7 4 15 0 8 -4 15 -10 15 -5 0
-7 -7 -4 -15z"/>
<path d="M6412 7680 c0 -14 2 -19 5 -12 2 6 2 18 0 25 -3 6 -5 1 -5 -13z"/>
<path d="M5960 7650 c0 -8 5 -22 10 -30 9 -13 10 -13 10 0 0 8 -5 22 -10 30
-9 13 -10 13 -10 0z"/>
<path d="M6431 7624 c0 -11 3 -14 6 -6 3 7 2 16 -1 19 -3 4 -6 -2 -5 -13z"/>
<path d="M5981 7584 c0 -11 3 -14 6 -6 3 7 2 16 -1 19 -3 4 -6 -2 -5 -13z"/>
<path d="M6453 7555 c6 -19 12 -33 14 -32 6 7 -9 67 -17 67 -5 0 -3 -16 3 -35z"/>
<path d="M10721 7573 c0 -12 -4 -23 -9 -25 -9 -4 -102 -189 -102 -203 0 -5 23
35 51 90 28 55 55 105 61 112 5 7 8 20 5 30 -4 15 -5 14 -6 -4z"/>
<path d="M12545 7550 c-237 -27 -418 -118 -558 -282 -26 -30 -47 -58 -47 -61
0 -4 -13 -27 -30 -53 -37 -59 -92 -208 -102 -278 -2 -13 -19 -25 -55 -37 -59
-20 -123 -62 -167 -108 l-30 -31 -626 0 c-345 0 -630 3 -633 6 -6 7 255 529
274 549 5 5 9 17 9 26 0 10 5 19 12 21 6 2 9 10 7 17 -3 7 -32 -40 -64 -105
-33 -66 -62 -121 -65 -124 -3 -3 -17 -27 -31 -55 l-26 -50 -74 1 c-41 1 -167
5 -281 9 -168 7 -208 11 -208 22 0 15 58 126 86 163 6 8 26 42 44 75 43 78 51
93 78 135 12 19 22 39 22 45 0 12 -37 -43 -72 -105 -53 -95 -71 -126 -87 -150
-28 -44 -40 -64 -58 -100 -32 -65 -46 -70 -128 -48 -42 11 -46 10 -70 -12 -14
-13 -23 -25 -20 -28 2 -2 11 3 20 12 18 17 75 21 103 7 9 -5 60 -29 112 -54
185 -89 375 -238 525 -411 28 -32 55 -63 61 -69 24 -27 124 -175 124 -185 0
-6 4 -12 8 -14 12 -4 100 -188 105 -218 l4 -25 2 26 c0 14 -8 45 -20 70 -63
133 -74 154 -81 157 -4 2 -8 8 -8 14 0 9 -104 164 -120 178 -3 3 -27 32 -55
65 -27 33 -63 71 -79 86 -19 17 -27 32 -23 42 6 16 57 17 606 17 385 0 602 -4
606 -10 3 -5 0 -24 -8 -42 -34 -77 -39 -103 -39 -187 0 -137 33 -222 122 -312
84 -85 183 -130 317 -143 70 -8 103 4 103 34 0 26 -23 36 -101 44 -161 16
-275 91 -336 221 -25 53 -28 72 -28 155 1 85 4 101 31 155 17 34 40 65 54 72
30 15 94 17 120 3 23 -12 1792 -13 1865 -1 28 5 60 5 73 0 32 -12 172 -11 172
1 0 6 81 10 224 10 176 0 226 -3 235 -14 8 -9 10 -204 9 -712 l-3 -699 -1970
-3 c-1083 -1 -1976 0 -1983 3 -10 3 32 94 143 312 85 168 154 311 151 317 -2
6 -5 3 -5 -8 -1 -14 -7 -17 -25 -14 -20 4 -26 0 -32 -21 -4 -14 -7 -29 -6 -33
1 -5 -2 -8 -7 -8 -5 0 -14 -13 -21 -30 -11 -27 -14 -28 -32 -16 -28 20 -62 3
-78 -40 -8 -19 -17 -34 -21 -34 -4 0 -14 -15 -23 -32 -9 -18 -32 -60 -51 -93
-20 -33 -38 -68 -42 -77 -3 -10 -10 -18 -15 -18 -5 0 -7 -4 -3 -9 3 -5 -1 -16
-9 -24 -8 -7 -32 -47 -53 -88 -21 -41 -40 -76 -43 -79 -3 -3 -6 -9 -7 -15 -1
-5 -17 -36 -36 -67 -19 -32 -40 -72 -48 -90 -7 -18 -15 -35 -18 -38 -12 -10
-101 -201 -101 -215 0 -8 -4 -15 -10 -15 -5 0 -10 -9 -10 -21 0 -11 -4 -17
-10 -14 -5 3 -10 -3 -10 -14 0 -11 -14 -45 -31 -75 -16 -31 -27 -56 -24 -56 3
0 -1 -10 -10 -23 -8 -13 -12 -27 -8 -30 3 -4 1 -7 -5 -7 -7 0 -12 -9 -12 -19
0 -11 -4 -23 -10 -26 -5 -3 -10 -15 -10 -25 0 -10 -6 -20 -12 -23 -10 -3 -10
-7 0 -19 6 -8 10 -28 8 -44 -2 -16 -1 -21 1 -12 2 10 14 20 26 24 16 3 30 24
50 73 15 37 27 73 27 79 0 7 5 12 10 12 6 0 10 9 10 19 0 11 5 23 10 26 6 3
10 15 10 25 0 10 3 20 8 22 8 3 54 96 58 117 1 7 7 18 13 24 6 6 11 19 11 29
0 10 5 18 10 18 6 0 10 9 10 19 0 11 3 21 8 23 9 4 102 189 102 205 0 6 3 13
8 15 9 4 27 37 83 148 24 47 46 87 50 90 9 6 77 126 92 163 6 15 15 27 19 27
4 0 8 7 8 15 0 8 5 15 10 15 6 0 10 9 10 19 0 10 7 22 16 25 12 4 10 -4 -8
-37 -13 -23 -26 -43 -30 -45 -5 -2 -8 -9 -8 -16 0 -18 -24 -66 -32 -66 -5 0
-8 -9 -8 -20 0 -11 -5 -20 -10 -20 -6 0 -9 -3 -8 -7 3 -11 -54 -127 -64 -131
-4 -2 -8 -9 -8 -16 0 -7 -18 -48 -39 -90 -22 -42 -37 -76 -33 -76 3 0 1 -5 -6
-12 -7 -7 -12 -20 -12 -30 0 -10 -4 -18 -10 -18 -5 0 -10 -9 -10 -20 0 -11 -4
-20 -10 -20 -5 0 -10 -9 -10 -20 0 -11 -5 -20 -12 -20 -6 0 -9 -3 -5 -6 3 -4
-4 -25 -16 -48 -13 -22 -29 -57 -37 -76 -7 -19 -33 -77 -57 -128 -24 -52 -43
-98 -43 -103 0 -5 -9 -26 -20 -46 -10 -20 -17 -40 -14 -45 3 -4 0 -8 -5 -8 -6
0 -11 -6 -11 -14 0 -8 -9 -31 -21 -50 -16 -27 -18 -38 -9 -53 9 -15 -2 -53
-63 -208 -89 -226 -101 -257 -178 -485 -63 -187 -69 -202 -84 -203 -14 -1 -34
-44 -37 -77 -1 -16 -5 -27 -9 -25 -3 3 -6 -10 -7 -27 0 -17 -4 -34 -9 -37 -4
-3 -10 -17 -11 -31 -2 -14 -9 -31 -14 -37 -6 -7 -8 -13 -5 -13 4 0 0 -18 -8
-39 -7 -22 -11 -42 -8 -45 3 -3 0 -12 -6 -20 -7 -8 -13 -28 -13 -45 -1 -17 -7
-36 -15 -42 -10 -9 -13 -5 -13 20 0 17 4 31 8 31 4 0 9 17 10 37 2 20 7 42 11
48 9 10 18 49 28 118 3 20 9 40 14 43 5 3 9 18 9 35 0 16 4 29 8 29 4 0 9 14
10 32 2 18 8 36 15 40 9 6 9 8 0 8 -6 0 -15 9 -18 20 -5 16 -12 19 -28 14 -29
-9 -27 -6 -32 -48 -3 -21 -10 -46 -15 -56 -6 -10 -10 -32 -10 -49 0 -17 -4
-31 -10 -31 -5 0 -9 -3 -9 -7 4 -26 -2 -73 -10 -69 -4 3 -7 -5 -7 -17 1 -12
-2 -33 -7 -47 -6 -14 -11 -36 -12 -50 -1 -14 -7 -43 -13 -65 -10 -36 -19 -77
-21 -97 -1 -5 -100 -8 -221 -8 -251 0 -235 7 -226 -95 2 -27 7 -81 11 -120 3
-38 7 -86 8 -105 2 -19 7 -41 11 -49 7 -10 5 -12 -5 -6 -11 7 -12 6 -3 -6 13
-16 18 -138 7 -140 -5 -1 -312 -2 -684 -3 l-677 -1 -43 92 c-24 51 -47 93 -51
93 -5 0 -8 6 -8 13 0 8 -16 46 -35 86 -19 39 -35 76 -35 81 0 6 -4 10 -10 10
-5 0 -10 6 -10 14 0 8 -9 31 -19 53 -62 126 -91 190 -91 201 0 6 -3 12 -7 12
-9 0 -33 49 -33 67 0 7 -4 13 -9 13 -7 0 -16 19 -20 45 -1 3 -18 40 -40 83
-80 159 -131 269 -131 280 0 7 -4 12 -10 12 -5 0 -10 9 -10 20 0 11 -5 20 -11
20 -5 0 -8 4 -5 9 3 4 -9 22 -27 38 -18 17 -44 55 -58 86 -13 31 -27 57 -32
57 -4 0 -1 -12 7 -27 7 -16 24 -50 36 -78 44 -99 69 -152 135 -290 67 -139
118 -247 200 -420 23 -49 73 -153 109 -230 37 -77 92 -193 123 -257 l56 -118
707 0 c554 0 710 -3 717 -12 6 -7 13 -34 16 -60 5 -37 3 -49 -10 -56 -14 -8
-14 -11 4 -29 15 -15 21 -40 27 -109 9 -123 24 -287 32 -362 l7 -62 436 2 436
3 2 35 c7 97 28 189 55 240 36 70 78 116 207 229 l104 91 401 0 c299 0 405 -3
414 -12 9 -9 12 -9 12 0 0 7 0 15 0 18 0 3 -177 5 -393 5 -222 -1 -398 3 -406
8 -12 8 -12 13 1 33 42 64 29 171 -28 225 -43 40 -130 73 -195 73 -53 0 -72
17 -49 45 6 8 10 22 7 32 -4 14 -5 12 -6 -5 -1 -14 -6 -22 -13 -19 -15 4 -17
78 -6 175 l8 62 -60 0 c-43 0 -62 4 -66 14 -3 8 8 43 24 78 36 79 74 173 102
258 12 36 26 74 30 85 30 75 80 287 110 460 14 83 8 376 -9 449 -16 72 -69
180 -102 212 -16 15 -29 35 -29 43 0 28 45 120 60 123 30 6 172 -133 209 -205
13 -26 26 -45 29 -43 6 7 -21 66 -30 66 -5 0 -8 5 -8 10 0 18 -95 122 -159
173 -26 22 -32 32 -27 52 7 28 76 181 178 393 l30 62 1992 -2 1991 -3 3 -702
2 -703 -1960 0 -1960 0 -1 38 -2 37 -7 -40 c-4 -22 -10 -60 -14 -85 -5 -37 -4
-40 4 -16 5 16 15 33 22 37 7 5 889 9 1960 9 l1948 0 5 -22 c3 -13 4 -333 3
-713 l-3 -690 -602 -3 c-547 -2 -603 -1 -618 14 -22 22 -8 34 46 41 73 9 95
26 119 90 39 102 29 243 -21 307 l-20 26 -417 0 c-229 0 -471 -5 -537 -10 -66
-6 -181 -15 -255 -21 -74 -6 -182 -14 -240 -19 -58 -5 -168 -13 -245 -19 -325
-24 -388 -30 -398 -40 -6 -6 -7 -11 -1 -11 5 0 300 0 656 0 l647 0 15 -22 c8
-13 22 -50 30 -83 28 -111 23 -192 -15 -267 l-19 -38 -657 0 c-511 0 -654 -3
-645 -12 9 -9 12 -72 12 -220 0 -159 3 -208 13 -209 6 0 43 0 81 1 46 1 66 -2
61 -9 -3 -6 -17 -11 -30 -11 -13 0 -27 -4 -30 -10 -3 -5 -21 -10 -38 -10 -45
0 -77 -10 -77 -24 0 -8 171 -10 652 -8 359 1 662 0 673 -2 12 -3 32 -25 45
-48 42 -74 32 -232 -18 -291 -15 -16 -56 -17 -685 -17 -368 1 -672 -2 -675 -5
-8 -8 -22 -7 693 -9 l660 -2 90 28 c88 28 297 94 465 149 47 15 137 44 200 64
130 42 152 59 176 144 19 62 13 115 -18 179 -32 67 -49 74 -192 75 -68 1 -127
5 -130 8 -4 3 4 28 18 55 23 48 47 168 30 151 -5 -5 -10 -17 -10 -28 -1 -10
-2 -20 -4 -21 -1 -2 -4 -16 -6 -33 -10 -57 -43 -102 -88 -116 -22 -7 -45 -15
-51 -19 -5 -3 -26 -11 -45 -17 -19 -6 -102 -32 -185 -58 -82 -26 -165 -54
-183 -62 -18 -8 -49 -17 -69 -20 -35 -6 -36 -6 -30 23 22 108 26 145 21 198
-3 34 -12 80 -20 104 -18 56 -18 62 6 62 11 0 39 4 62 10 24 5 68 14 98 19
144 26 291 54 355 66 86 17 108 6 126 -57 l12 -43 6 30 6 30 608 3 607 2 0
723 c1 2868 -1 3602 -8 3609 -7 7 -341 5 -549 -4 -53 -3 -65 0 -87 21 -26 24
-33 61 -20 96 10 25 59 45 111 45 l49 0 12 45 c23 87 7 181 -45 259 -25 38
-25 41 -13 106 21 112 -16 138 -123 84 -49 -24 -54 -25 -121 -13 -40 7 -104 9
-149 6 -70 -6 -81 -4 -120 18 -281 166 -501 223 -752 195z m256 -24 c52 -8
131 -27 176 -42 90 -29 319 -146 316 -160 -5 -25 -34 -27 -100 -6 -81 26 -87
27 -107 6 -20 -20 -20 -49 0 -112 16 -49 16 -51 -10 -117 -23 -55 -27 -80 -25
-143 2 -72 1 -77 -19 -80 -32 -5 -27 -22 6 -22 22 0 34 -9 53 -37 13 -21 48
-55 77 -77 37 -28 49 -42 40 -48 -16 -9 -100 -10 -241 -1 -87 5 -105 9 -96 19
15 19 15 100 -1 119 -29 34 -68 45 -165 45 -57 0 -95 -4 -95 -10 0 -6 39 -10
96 -10 107 0 147 -15 163 -60 10 -30 -8 -74 -39 -90 -23 -12 -1016 -14 -1024
-2 -6 10 9 130 25 192 72 288 230 482 471 579 75 30 114 40 228 55 128 18 161
18 271 2z m989 -225 c0 -27 -5 -62 -10 -77 -9 -23 -7 -33 16 -65 31 -45 64
-139 64 -182 0 -16 -5 -47 -12 -68 -11 -37 -13 -39 -53 -39 -62 0 -108 -34
-115 -85 -3 -22 -9 -45 -13 -51 -15 -24 -103 -39 -232 -38 -146 0 -208 17
-278 75 -61 50 -81 100 -81 199 0 73 4 92 27 137 26 50 26 55 13 90 -23 62
-28 94 -15 109 16 19 30 18 93 -11 64 -29 59 -29 99 -12 97 42 186 48 289 21
56 -14 62 -14 86 2 47 31 76 44 100 44 20 0 22 -5 22 -49z m-2000 -559 c0 -29
-21 -42 -67 -42 -51 0 -55 13 -10 40 41 25 77 26 77 2z m-1656 -2259 c148
-264 95 -739 -150 -1330 -54 -130 -61 -142 -87 -147 -43 -9 -340 -7 -354 2
-11 7 18 139 61 282 8 25 24 79 36 120 67 232 192 582 322 905 101 253 102
254 129 229 11 -10 30 -37 43 -61z m-648 -1471 c-12 -11 -18 7 -10 30 l8 23 4
-23 c2 -13 1 -26 -2 -30z m559 -122 c0 -47 -6 -141 -13 -210 -16 -153 -35
-361 -57 -625 -9 -110 -19 -216 -23 -235 l-7 -35 -420 0 -420 0 -7 80 c-3 44
-16 181 -27 305 -11 124 -25 281 -31 350 -6 69 -15 163 -20 210 -16 143 -21
236 -13 243 3 4 239 6 522 5 l516 -3 0 -85z m2870 -70 c6 -9 -6 -12 -140 -30
-280 -37 -335 -40 -710 -39 -319 0 -376 2 -355 13 14 8 68 16 120 20 52 3 149
11 215 16 66 5 165 13 220 16 55 4 102 8 104 10 9 8 541 2 546 -6z m359 -45
c23 -48 27 -174 7 -226 -32 -85 -37 -88 -151 -108 -36 -6 -128 -22 -205 -36
-77 -14 -189 -35 -250 -46 -60 -11 -117 -22 -126 -23 -31 -6 -43 9 -28 35 21
37 18 232 -4 292 -9 27 -15 52 -12 56 2 5 28 12 57 16 29 5 55 9 58 10 3 0 43
5 90 9 47 5 94 10 105 12 20 4 133 18 279 34 43 5 81 12 84 15 4 3 22 5 42 3
30 -3 38 -9 54 -43z m-3025 -147 c25 -13 54 -35 64 -50 35 -48 20 -135 -34
-189 -16 -16 -33 -19 -128 -19 -73 0 -112 4 -117 12 -7 11 -6 119 1 156 1 9 6
37 10 62 4 25 13 49 19 53 20 14 138 -2 185 -25z m-25 -277 c3 -5 -29 -40 -71
-77 -43 -38 -90 -84 -107 -102 -16 -18 -31 -30 -34 -27 -9 9 -2 165 9 192 8
22 13 23 103 23 52 0 97 -4 100 -9z m2214 -78 c11 -16 25 -45 31 -65 16 -47
15 -186 0 -224 -6 -16 -18 -44 -26 -62 l-14 -32 -617 2 -617 3 -3 187 c-2 159
0 188 13 202 15 14 81 16 615 16 l599 0 19 -27z m666 -248 c-11 -8 -29 -15
-41 -15 -13 0 -23 -5 -23 -11 0 -5 -4 -7 -10 -4 -9 6 -70 -8 -115 -25 -11 -4
-40 -13 -65 -20 -25 -6 -53 -16 -62 -21 -10 -5 -29 -9 -43 -9 -14 0 -25 -4
-25 -9 0 -5 -15 -11 -32 -14 -18 -3 -60 -12 -93 -22 -92 -25 -119 -29 -111
-16 4 6 15 11 24 11 10 0 42 9 72 21 30 11 64 22 75 23 21 4 106 31 140 45 18
8 52 20 98 35 9 3 19 4 21 3 1 -1 10 4 18 11 9 7 33 15 54 17 21 3 39 6 40 8
1 1 24 3 50 4 42 2 45 1 28 -12z m284 -52 c21 -49 28 -138 11 -149 -5 -3 -9
-13 -9 -23 0 -25 -38 -56 -85 -71 -22 -7 -48 -16 -57 -21 -10 -5 -27 -9 -37
-9 -11 0 -23 -4 -26 -10 -3 -5 -19 -10 -36 -10 -16 0 -29 -4 -29 -10 0 -5 -9
-10 -20 -10 -11 0 -28 -4 -38 -9 -9 -5 -46 -17 -82 -26 -64 -17 -98 -29 -132
-46 -10 -5 -29 -9 -43 -9 -14 0 -25 -4 -25 -10 0 -5 -11 -10 -24 -10 -14 0
-28 -4 -31 -10 -3 -5 -19 -10 -34 -10 -15 0 -31 -4 -36 -9 -6 -4 -24 -11 -42
-14 -31 -6 -32 -5 -23 17 5 13 6 26 3 29 -3 3 -1 12 3 19 10 15 14 108 5 108
-3 0 -7 14 -8 32 -1 17 -7 36 -13 42 -15 15 -12 56 5 57 23 2 29 4 40 11 6 3
26 9 46 12 20 3 48 10 62 15 14 5 28 7 31 4 3 -4 6 -2 6 4 0 5 26 16 58 23 31
7 65 16 74 21 9 5 34 12 55 15 21 3 42 9 48 12 9 5 25 9 63 14 6 1 12 5 12 9
0 4 9 6 20 4 11 -2 20 0 20 6 0 5 3 8 8 7 4 0 14 1 22 4 64 24 151 47 181 47
33 1 37 -2 57 -46z"/>
<path d="M12215 7250 c3 -5 23 -10 43 -10 20 0 64 -13 97 -29 106 -50 181
-148 194 -254 6 -47 31 -81 31 -40 0 31 -26 116 -49 162 -50 98 -175 181 -271
181 -32 0 -49 -4 -45 -10z"/>
<path d="M13590 7060 c0 -5 15 -10 34 -10 19 0 38 5 41 10 4 6 -10 10 -34 10
-23 0 -41 -4 -41 -10z"/>
<path d="M13268 7043 c-20 -5 -24 -23 -5 -23 24 0 57 12 57 21 0 9 -22 10 -52
2z"/>
<path d="M11933 1963 c48 -2 126 -2 175 0 48 1 8 3 -88 3 -96 0 -136 -2 -87
-3z"/>
<path d="M6002 7530 c0 -14 2 -19 5 -12 2 6 2 18 0 25 -3 6 -5 1 -5 -13z"/>
<path d="M6482 7480 c0 -14 2 -19 5 -12 2 6 2 18 0 25 -3 6 -5 1 -5 -13z"/>
<path d="M6022 7470 c0 -14 2 -19 5 -12 2 6 2 18 0 25 -3 6 -5 1 -5 -13z"/>
<path d="M6042 7415 c0 -16 2 -22 5 -12 2 9 2 23 0 30 -3 6 -5 -1 -5 -18z"/>
<path d="M6502 7420 c0 -14 2 -19 5 -12 2 6 2 18 0 25 -3 6 -5 1 -5 -13z"/>
<path d="M6522 7370 c0 -14 2 -19 5 -12 2 6 2 18 0 25 -3 6 -5 1 -5 -13z"/>
<path d="M6057 7360 c3 -11 7 -20 9 -20 2 0 4 9 4 20 0 11 -4 20 -9 20 -5 0
-7 -9 -4 -20z"/>
<path d="M6542 7310 c0 -14 2 -19 5 -12 2 6 2 18 0 25 -3 6 -5 1 -5 -13z"/>
<path d="M6561 7254 c0 -11 3 -14 6 -6 3 7 2 16 -1 19 -3 4 -6 -2 -5 -13z"/>
<path d="M6570 7223 c0 -4 5 -15 10 -23 8 -13 10 -13 10 2 0 9 -4 20 -10 23
-5 3 -10 3 -10 -2z"/>
<path d="M6111 7204 c0 -11 3 -14 6 -6 3 7 2 16 -1 19 -3 4 -6 -2 -5 -13z"/>
<path d="M6591 7164 c0 -11 3 -14 6 -6 3 7 2 16 -1 19 -3 4 -6 -2 -5 -13z"/>
<path d="M6132 7145 c0 -16 2 -22 5 -12 2 9 2 23 0 30 -3 6 -5 -1 -5 -18z"/>
<path d="M6612 7110 c0 -14 2 -19 5 -12 2 6 2 18 0 25 -3 6 -5 1 -5 -13z"/>
<path d="M6152 7085 c0 -16 2 -22 5 -12 2 9 2 23 0 30 -3 6 -5 -1 -5 -18z"/>
<path d="M6632 7050 c0 -14 2 -19 5 -12 2 6 2 18 0 25 -3 6 -5 1 -5 -13z"/>
<path d="M6172 7030 c0 -14 2 -19 5 -12 2 6 2 18 0 25 -3 6 -5 1 -5 -13z"/>
<path d="M6652 6995 c0 -16 2 -22 5 -12 2 9 2 23 0 30 -3 6 -5 -1 -5 -18z"/>
<path d="M6191 6974 c0 -11 3 -14 6 -6 3 7 2 16 -1 19 -3 4 -6 -2 -5 -13z"/>
<path d="M7845 6981 c-78 -20 -149 -84 -187 -166 -19 -42 -23 -67 -23 -150 0
-92 3 -105 33 -167 21 -43 50 -82 82 -111 28 -25 50 -48 50 -51 0 -3 -13 -35
-30 -71 -16 -36 -30 -74 -30 -85 0 -10 -4 -21 -9 -24 -11 -7 -21 -62 -26 -141
l-4 -60 10 50 c20 104 43 182 72 248 34 77 20 73 147 43 41 -10 115 -15 202
-16 199 0 299 -29 370 -108 38 -42 58 -89 61 -146 2 -19 6 -38 10 -42 3 -4 24
5 46 20 49 34 88 29 126 -16 30 -36 32 -67 4 -102 -31 -40 -75 -58 -139 -58
l-57 0 -81 -88 c-189 -204 -375 -280 -538 -219 -109 41 -193 163 -219 318 -12
72 -13 73 -14 26 -1 -86 39 -194 98 -269 20 -25 29 -46 25 -55 -3 -9 -15 -43
-26 -76 -11 -33 -24 -69 -29 -80 -4 -11 -15 -40 -22 -65 -22 -68 -36 -71 -99
-23 -96 73 -215 225 -300 383 -74 139 -180 415 -239 621 -11 40 -15 45 -27 33
-7 -8 -18 -14 -23 -14 -5 0 -4 -10 3 -22 6 -13 13 -30 14 -38 4 -22 45 -152
55 -172 5 -10 9 -24 9 -31 0 -7 9 -32 20 -55 11 -22 20 -47 20 -55 0 -7 3 -17
8 -21 4 -4 8 -12 8 -17 1 -5 3 -11 4 -14 1 -3 3 -8 4 -12 1 -5 12 -28 24 -52
12 -25 22 -51 22 -58 0 -7 5 -13 11 -13 6 0 9 -7 6 -15 -4 -8 -2 -17 3 -20 6
-4 19 -25 30 -48 30 -61 61 -112 71 -115 5 -2 9 -12 9 -22 0 -10 8 -25 18 -32
9 -7 23 -25 31 -40 7 -14 44 -58 81 -97 37 -39 65 -72 64 -74 -2 -2 19 -16 46
-32 28 -16 50 -33 50 -37 0 -4 9 -8 21 -8 11 0 17 -4 14 -10 -3 -5 -1 -10 5
-10 5 0 29 -8 53 -18 23 -11 58 -24 78 -30 49 -16 194 -15 251 2 25 8 50 11
54 8 4 -4 4 -1 0 6 -5 8 1 12 18 12 14 0 28 5 31 10 3 6 15 10 26 10 10 0 19
5 19 10 0 6 8 10 19 10 10 0 50 16 87 35 38 19 75 35 82 35 6 0 12 5 12 12 0
6 3 9 6 5 4 -3 21 5 39 18 17 14 34 23 37 20 3 -3 11 1 18 10 7 8 17 15 22 15
5 0 24 11 42 25 18 14 38 25 45 25 7 0 9 5 6 10 -3 6 1 10 9 10 9 0 16 5 16
10 0 6 7 10 15 10 8 0 15 3 15 8 0 4 11 14 24 22 70 44 330 295 364 353 9 15
20 27 24 27 4 0 8 6 8 14 0 8 4 16 8 18 10 4 102 123 102 132 0 4 9 16 20 28
10 11 26 36 35 54 8 18 20 36 25 39 6 3 10 15 10 26 0 10 4 19 9 19 5 0 15 16
22 35 7 19 17 35 21 35 4 0 8 9 8 20 0 11 4 20 8 20 9 0 82 142 82 158 0 8 35
83 71 154 5 10 9 25 9 33 0 8 6 15 13 15 6 0 4 5 -6 11 -21 12 -14 46 24 121
5 10 9 26 9 36 0 10 5 23 11 29 6 6 9 21 6 34 -4 22 -4 22 -6 -3 0 -15 -5 -30
-11 -33 -5 -3 -10 -15 -10 -26 0 -10 -4 -27 -9 -37 -5 -9 -13 -28 -19 -42 -5
-14 -19 -45 -29 -70 -11 -25 -33 -76 -48 -115 -87 -212 -246 -484 -393 -674
-79 -101 -272 -297 -357 -362 -162 -124 -346 -230 -518 -298 -87 -35 -107 -38
-107 -16 0 13 19 70 40 120 5 11 16 40 24 65 28 87 38 100 123 156 47 30 124
95 173 145 60 60 97 90 112 91 44 1 123 22 150 40 36 24 62 80 54 113 -7 28
-62 85 -81 85 -26 0 -23 30 7 67 104 131 122 292 40 364 l-36 32 -107 -6 c-88
-5 -109 -4 -119 9 -8 8 -21 12 -32 8 -27 -8 -84 53 -188 206 -98 144 -159 208
-225 239 -51 24 -151 35 -200 22z m111 -56 c17 -13 17 -14 2 -15 -9 0 -20 5
-23 10 -3 6 -17 10 -30 10 -13 0 -27 -4 -30 -10 -3 -5 -15 -10 -26 -10 -43 0
-97 -58 -120 -128 -8 -23 -8 -21 -5 15 4 47 28 83 71 110 55 34 129 42 161 18z
m214 -1464 c0 -10 -60 -179 -83 -233 -9 -21 -20 -38 -24 -38 -4 -1 -27 -5 -50
-9 -48 -9 -137 2 -203 26 -72 26 -76 32 -54 95 38 107 28 101 156 103 103 2
119 4 178 33 72 34 80 36 80 23z"/>
<path d="M9632 6955 c0 -16 2 -22 5 -12 2 9 2 23 0 30 -3 6 -5 -1 -5 -18z"/>
<path d="M6671 6944 c0 -11 3 -14 6 -6 3 7 2 16 -1 19 -3 4 -6 -2 -5 -13z"/>
<path d="M6207 6919 c4 -13 8 -18 11 -10 2 7 -1 18 -6 23 -8 8 -9 4 -5 -13z"/>
<path d="M6692 6890 c0 -14 2 -19 5 -12 2 6 2 18 0 25 -3 6 -5 1 -5 -13z"/>
<path d="M6221 6886 c-1 -10 4 -28 49 -159 34 -99 38 -137 15 -137 -8 0 -23
-4 -33 -9 -9 -5 -84 -42 -167 -83 -115 -56 -161 -85 -202 -124 -48 -48 -74
-96 -59 -111 3 -4 6 2 6 13 0 43 114 144 208 185 17 8 32 17 32 21 0 5 4 8 10
8 5 0 35 12 67 26 32 14 67 30 78 34 11 4 36 15 57 24 39 17 248 87 313 104
22 6 59 15 81 21 23 6 55 11 73 11 36 0 38 3 12 29 -13 13 -23 16 -35 9 -10
-6 -36 -5 -69 1 -29 6 -124 22 -212 36 -88 15 -167 28 -176 31 -9 2 -23 21
-32 42 -8 20 -15 33 -16 28z"/>
<path d="M6721 6794 c0 -11 3 -14 6 -6 3 7 2 16 -1 19 -3 4 -6 -2 -5 -13z"/>
<path d="M6800 6730 c0 -6 27 -10 60 -10 33 0 77 -7 99 -16 37 -15 44 -23 61
-84 7 -22 8 -22 9 -4 1 24 -25 80 -42 91 -45 29 -187 46 -187 23z"/>
<path d="M7042 6545 c0 -16 2 -22 5 -12 2 9 2 23 0 30 -3 6 -5 -1 -5 -18z"/>
<path d="M7062 6455 c0 -16 2 -22 5 -12 2 9 2 23 0 30 -3 6 -5 -1 -5 -18z"/>
<path d="M5803 6175 c0 -33 2 -45 4 -27 2 18 2 45 0 60 -2 15 -4 0 -4 -33z"/>
<path d="M7989 6188 c-7 -13 -20 -37 -30 -55 -29 -52 -59 -153 -59 -199 0 -45
28 -92 48 -80 8 5 6 13 -8 28 -38 41 -15 152 57 275 14 25 20 44 14 47 -6 4
-15 -4 -22 -16z"/>
<path d="M11724 6183 c10 -10 626 -12 626 -1 0 4 -142 8 -317 8 -174 0 -313
-3 -309 -7z"/>
<path d="M7824 6156 c-9 -24 4 -48 23 -44 12 2 18 12 18 28 0 29 -32 41 -41
16z"/>
<path d="M8136 6104 c-25 -25 5 -74 31 -52 18 14 16 55 -2 62 -8 3 -21 -2 -29
-10z"/>
<path d="M5822 6040 c0 -14 2 -19 5 -12 2 6 2 18 0 25 -3 6 -5 1 -5 -13z"/>
<path d="M5830 5985 c0 -5 5 -17 10 -25 5 -8 10 -10 10 -5 0 6 -5 17 -10 25
-5 8 -10 11 -10 5z"/>
<path d="M10702 5935 c0 -16 2 -22 5 -12 2 9 2 23 0 30 -3 6 -5 -1 -5 -18z"/>
<path d="M7701 5934 c0 -11 3 -14 6 -6 3 7 2 16 -1 19 -3 4 -6 -2 -5 -13z"/>
<path d="M5850 5901 c0 -12 8 -54 18 -94 11 -39 24 -94 30 -122 11 -48 41
-176 82 -350 10 -44 28 -118 38 -165 57 -247 78 -337 107 -455 l32 -130 8 63
c5 43 4 67 -4 75 -6 6 -11 22 -11 37 0 14 -9 58 -19 98 -11 39 -17 72 -15 72
3 0 0 9 -6 21 -6 11 -12 34 -12 50 -1 16 -5 32 -10 35 -4 3 -8 20 -8 39 0 19
-4 37 -10 40 -5 3 -10 21 -10 40 0 19 -4 37 -10 40 -5 3 -10 24 -10 45 0 21
-4 41 -9 44 -4 3 -11 25 -15 48 -12 77 -13 83 -16 83 -1 0 -4 14 -6 30 -3 17
-9 43 -14 59 -6 16 -10 42 -10 57 0 16 -4 29 -10 29 -5 0 -10 15 -10 34 0 19
-4 38 -10 41 -5 3 -10 21 -10 40 0 19 -4 36 -9 39 -4 3 -11 27 -15 53 -10 68
-14 97 -15 107 -1 5 -4 6 -8 3 -3 -4 -12 -2 -20 4 -10 9 -13 7 -13 -10z"/>
<path d="M4410 5480 c-126 -24 -231 -60 -365 -125 -245 -119 -477 -298 -593
-457 -23 -31 -42 -61 -42 -67 0 -5 -4 -11 -8 -13 -13 -5 -98 -178 -119 -243
-20 -59 -30 -93 -55 -190 -18 -70 -15 -295 5 -367 19 -71 48 -136 88 -202 l31
-50 -25 -105 c-36 -153 -60 -292 -76 -446 -24 -224 -31 -341 -33 -546 -1 -117
-3 -173 -5 -124 -5 211 -33 524 -62 705 -36 230 -131 507 -212 621 -25 35 -24
40 10 107 36 72 47 99 59 142 6 19 15 51 21 71 21 69 12 188 -20 251 -5 10 -9
25 -9 33 0 8 -3 15 -8 15 -4 0 -13 14 -21 31 -28 64 -161 190 -266 252 -114
67 -482 227 -522 227 -7 0 -22 4 -33 10 -11 6 -29 15 -40 20 -11 6 -27 10 -35
10 -8 0 -23 4 -33 9 -40 21 -148 61 -164 61 -10 0 -18 3 -18 8 0 4 -18 15 -41
25 -41 18 -119 89 -119 109 0 7 -5 6 -15 -2 -11 -10 -15 -36 -15 -111 0 -54 4
-101 10 -104 6 -3 10 -15 10 -25 0 -22 63 -148 88 -176 9 -10 29 -35 44 -55
35 -47 147 -160 228 -230 73 -63 76 -65 185 -151 44 -34 82 -65 85 -68 3 -3
48 -37 100 -75 52 -38 97 -72 100 -75 3 -3 30 -23 60 -45 30 -22 60 -44 66
-50 6 -5 26 -21 44 -35 42 -31 147 -119 178 -150 8 -8 30 -37 47 -65 105 -164
194 -472 219 -755 6 -62 5 -64 -9 -36 -8 15 -15 33 -15 38 0 21 -89 198 -130
258 -24 35 -75 98 -115 139 l-72 76 -6 78 c-9 99 -41 169 -106 230 -82 76
-196 124 -448 186 -117 29 -219 66 -264 97 -28 18 -53 34 -55 34 -11 0 -2 -67
20 -153 45 -177 155 -340 277 -410 135 -78 327 -113 484 -87 69 11 73 9 154
-71 68 -68 135 -157 172 -231 48 -96 90 -210 87 -237 -3 -23 -7 -18 -45 39
-138 213 -373 304 -703 273 l-85 -8 -3 -30 c-6 -69 -13 -95 -28 -95 -8 0 -42
20 -76 45 -56 40 -66 44 -102 39 -133 -19 -303 -81 -314 -113 -6 -19 88 -103
155 -138 121 -64 255 -93 583 -128 257 -27 336 -42 453 -83 137 -49 212 -145
212 -271 l0 -66 -265 -5 -265 -5 3 -25 c2 -14 7 -38 12 -55 4 -16 14 -58 21
-92 11 -51 17 -63 36 -68 13 -3 28 -16 33 -28 8 -20 34 -132 60 -257 6 -25 18
-83 29 -130 11 -47 32 -141 47 -210 15 -69 30 -129 34 -133 7 -8 840 -10 848
-3 3 4 45 184 92 401 6 28 15 68 20 90 5 22 19 83 30 135 27 122 34 138 61
142 17 2 24 14 35 58 7 30 18 74 24 98 17 70 14 82 -20 82 -17 0 -30 5 -30 13
0 6 14 47 30 90 56 143 51 289 -14 422 -36 73 -99 155 -119 155 -7 0 -33 -24
-58 -53 -26 -28 -83 -79 -128 -112 l-81 -60 6 -71 c4 -42 2 -74 -4 -77 -5 -4
-27 7 -48 23 -21 16 -46 30 -55 30 -23 0 -129 -116 -159 -174 -51 -99 -64 -53
-35 119 54 313 202 529 433 632 51 23 67 25 152 22 52 -2 191 -4 308 -4 202 0
214 1 228 20 9 11 18 33 21 48 8 37 24 42 63 22 26 -14 38 -15 58 -6 13 7 26
10 27 9 2 -2 19 -37 39 -78 19 -41 36 -70 36 -64 0 5 -11 34 -25 63 -43 88
-43 103 3 158 52 64 98 150 131 248 15 44 30 86 34 93 7 9 210 12 951 12 l943
0 21 -23 c12 -13 22 -27 22 -33 0 -5 24 -58 53 -119 30 -60 60 -125 68 -142 8
-18 17 -33 21 -33 5 0 8 -6 8 -13 0 -8 15 -45 34 -83 19 -38 49 -100 67 -139
18 -38 37 -71 41 -73 4 -2 8 -10 8 -17 0 -7 16 -44 35 -81 19 -37 35 -73 35
-80 0 -8 5 -14 10 -14 6 0 10 -9 10 -20 0 -11 5 -20 10 -20 6 0 10 -5 10 -10
0 -6 25 -63 56 -128 91 -189 234 -484 255 -525 24 -49 24 -54 -3 -63 -21 -7
-20 -9 12 -14 19 -3 43 -4 53 -2 16 4 16 6 -3 19 -11 8 -50 76 -86 151 -37 75
-109 225 -161 332 -52 107 -127 263 -168 345 -40 83 -118 242 -173 355 -228
469 -217 440 -184 488 10 15 24 39 32 55 21 43 44 34 71 -28 13 -30 25 -52 27
-50 4 4 -35 95 -56 134 -7 12 -52 14 -263 12 -235 -2 -256 -1 -271 16 -9 10
-18 27 -21 38 -4 16 -5 15 -6 -5 0 -15 -6 -31 -13 -38 -18 -18 -1391 -17
-1406 1 -5 6 -12 103 -15 217 -3 113 -9 219 -15 235 l-9 30 -7 -25 c-3 -14
-15 -65 -25 -115 -21 -96 -65 -225 -99 -290 -28 -55 -51 -66 -128 -64 -35 1
-66 0 -67 -2 -18 -23 -47 -84 -47 -97 0 -9 12 7 26 36 l27 52 68 0 c37 0 70
-4 73 -9 3 -4 -14 -37 -37 -72 l-43 -64 -67 -3 c-66 -3 -68 -2 -64 20 2 13 2
17 0 11 -3 -7 -8 -13 -13 -13 -15 0 -18 -39 -4 -57 7 -10 14 -26 14 -35 0 -10
5 -18 10 -18 49 0 -82 -139 -215 -228 -115 -76 -335 -181 -383 -182 -11 0 -38
-11 -132 -53 -120 -54 -250 -188 -322 -332 -41 -81 -88 -231 -88 -280 0 -14
-4 -25 -10 -25 -13 0 -13 133 0 258 27 262 33 314 46 397 21 133 64 314 76
321 5 3 67 5 137 5 142 -2 232 9 336 41 153 48 289 131 400 243 81 82 94 98
140 170 85 133 147 325 104 325 -18 0 -129 80 -129 93 0 7 28 23 63 36 103 40
160 74 184 109 33 50 70 156 102 295 14 61 14 310 0 356 -27 88 -24 86 -129
88 -58 1 -133 -6 -190 -17z m265 -14 c28 -21 44 -100 45 -226 0 -122 -14 -209
-55 -337 -46 -142 -72 -170 -212 -224 -13 -5 -33 -13 -45 -18 -13 -5 -38 -15
-56 -21 -31 -12 -32 -14 -16 -31 9 -10 49 -40 90 -66 78 -51 85 -64 63 -120
-6 -15 -15 -37 -19 -48 -19 -51 -94 -192 -109 -205 -3 -3 -18 -21 -32 -40
-103 -138 -292 -272 -449 -319 -25 -7 -54 -17 -66 -21 -46 -18 -221 -33 -322
-27 -122 7 -126 10 -183 127 -58 120 -69 168 -69 315 0 142 24 270 71 380 122
288 230 421 484 597 142 99 310 186 446 231 159 54 394 82 434 53z m-2848
-341 c32 -15 67 -31 78 -35 21 -8 52 -20 98 -39 15 -6 37 -15 50 -20 12 -5 67
-26 122 -46 310 -114 420 -163 544 -243 147 -94 239 -196 282 -314 20 -57 27
-207 10 -250 -5 -13 -14 -41 -21 -63 -19 -61 -83 -194 -96 -199 -7 -3 -20 3
-30 12 -11 10 -41 35 -69 57 -27 22 -59 48 -70 58 -11 10 -81 64 -155 120 -74
56 -137 104 -140 107 -3 3 -41 32 -85 65 -44 33 -87 65 -95 72 -183 147 -353
304 -425 393 -104 128 -160 281 -141 383 l7 38 39 -34 c22 -18 65 -46 97 -62z
m2986 -787 c5 -82 -12 -297 -32 -393 -32 -161 -142 -366 -226 -421 -23 -15
-27 -15 -63 4 -22 11 -43 17 -48 14 -6 -4 -16 -26 -24 -50 -7 -23 -20 -48 -28
-55 -17 -14 -443 -17 -477 -4 -16 7 3 20 103 67 365 175 612 448 733 812 17
51 33 96 36 101 13 22 21 -2 26 -75z m-2653 -298 c41 -12 91 -25 110 -30 124
-31 277 -86 328 -119 111 -73 166 -166 160 -273 l-3 -53 -60 -8 c-79 -11 -257
-1 -320 18 -143 44 -278 150 -342 270 -39 73 -83 203 -83 243 l0 30 68 -28
c37 -16 101 -39 142 -50z m4620 41 c0 -11 -3 -21 -7 -23 -5 -1 -20 -25 -34
-53 l-26 -50 -952 -3 -951 -2 0 37 c0 21 5 55 11 76 l10 37 974 0 c954 0 975
0 975 -19z m-2275 -161 c3 -5 -8 -24 -24 -42 -26 -29 -31 -31 -45 -18 -14 15
-20 32 -17 58 1 14 77 17 86 2z m-1807 -660 c175 -44 299 -142 370 -290 37
-78 79 -233 70 -261 -2 -6 -24 6 -48 26 -109 91 -238 125 -625 165 -355 36
-525 86 -636 187 -22 20 -39 41 -39 48 0 20 70 50 190 80 93 24 118 20 189
-30 92 -65 103 -62 116 28 4 26 12 51 19 56 30 25 284 20 394 -9z m1221 -235
c70 -107 86 -159 86 -280 0 -86 -4 -110 -28 -172 -16 -40 -37 -84 -48 -98
l-20 -25 -304 0 c-167 0 -306 4 -309 8 -7 12 19 95 49 157 30 60 120 165 142
165 8 0 40 -18 71 -40 30 -22 59 -37 63 -33 4 5 4 40 -1 78 -14 103 -14 100
43 141 28 21 84 69 124 106 40 38 75 68 78 68 3 0 27 -34 54 -75z m74 -603 c3
-4 -4 -49 -16 -100 l-20 -92 -632 0 -632 0 -22 91 c-11 50 -18 95 -15 100 6
11 1331 12 1337 1z m-106 -238 c3 -9 0 -39 -6 -67 -53 -232 -74 -325 -91 -407
-11 -52 -28 -129 -38 -170 l-17 -75 -410 0 -410 0 -18 70 c-18 72 -33 139 -47
210 -4 22 -26 123 -49 224 -22 101 -41 195 -41 208 l0 23 560 0 c502 0 561 -2
567 -16z"/>
<path d="M4485 5348 c-172 -126 -210 -157 -325 -263 -311 -288 -525 -607 -710
-1060 -13 -31 -58 -157 -65 -182 -5 -17 -2 -23 9 -23 9 0 16 7 16 15 0 8 4 23
9 33 5 9 31 73 57 142 99 263 272 567 439 775 106 132 270 297 400 400 28 22
52 42 55 45 3 3 49 38 103 77 54 40 98 76 98 80 1 19 -21 9 -86 -39z"/>
<path d="M11883 4733 c93 -2 241 -2 330 0 89 1 14 3 -168 3 -181 0 -254 -2
-162 -3z"/>
<path d="M6173 4535 c0 -22 2 -30 4 -17 2 12 2 30 0 40 -3 9 -5 -1 -4 -23z"/>
<path d="M6188 4455 c2 -14 6 -25 8 -25 2 0 4 11 4 25 0 14 -4 25 -9 25 -4 0
-6 -11 -3 -25z"/>
<path d="M10391 4444 c0 -11 3 -14 6 -6 3 7 2 16 -1 19 -3 4 -6 -2 -5 -13z"/>
<path d="M10400 4410 c0 -8 5 -22 10 -30 9 -13 10 -13 10 0 0 8 -5 22 -10 30
-9 13 -10 13 -10 0z"/>
<path d="M6200 4400 c0 -8 5 -22 10 -30 9 -13 10 -13 10 0 0 8 -5 22 -10 30
-9 13 -10 13 -10 0z"/>
<path d="M9831 4364 c0 -11 3 -14 6 -6 3 7 2 16 -1 19 -3 4 -6 -2 -5 -13z"/>
<path d="M10422 4340 c0 -14 2 -19 5 -12 2 6 2 18 0 25 -3 6 -5 1 -5 -13z"/>
<path d="M9812 4320 c0 -14 2 -19 5 -12 2 6 2 18 0 25 -3 6 -5 1 -5 -13z"/>
<path d="M6221 4314 c0 -11 3 -14 6 -6 3 7 2 16 -1 19 -3 4 -6 -2 -5 -13z"/>
<path d="M9789 4263 c-20 -56 -20 -58 -11 -48 11 12 33 75 26 75 -2 0 -9 -12
-15 -27z"/>
<path d="M6242 4230 c0 -19 2 -27 5 -17 2 9 2 25 0 35 -3 9 -5 1 -5 -18z"/>
<path d="M10444 4110 c0 -85 2 -120 3 -77 2 42 2 112 0 155 -1 42 -3 7 -3 -78z"/>
<path d="M9762 4180 c0 -14 2 -19 5 -12 2 6 2 18 0 25 -3 6 -5 1 -5 -13z"/>
<path d="M9742 4125 c0 -16 2 -22 5 -12 2 9 2 23 0 30 -3 6 -5 -1 -5 -18z"/>
<path d="M9722 4070 c0 -14 2 -19 5 -12 2 6 2 18 0 25 -3 6 -5 1 -5 -13z"/>
<path d="M9701 4014 c0 -11 3 -14 6 -6 3 7 2 16 -1 19 -3 4 -6 -2 -5 -13z"/>
<path d="M6892 3940 c0 -14 2 -19 5 -12 2 6 2 18 0 25 -3 6 -5 1 -5 -13z"/>
<path d="M6911 3894 c0 -11 3 -14 6 -6 3 7 2 16 -1 19 -3 4 -6 -2 -5 -13z"/>
<path d="M9660 3895 c0 -8 2 -15 4 -15 2 0 6 7 10 15 3 8 1 15 -4 15 -6 0 -10
-7 -10 -15z"/>
<path d="M9651 3854 c0 -11 3 -14 6 -6 3 7 2 16 -1 19 -3 4 -6 -2 -5 -13z"/>
<path d="M9632 3790 c0 -14 2 -19 5 -12 2 6 2 18 0 25 -3 6 -5 1 -5 -13z"/>
<path d="M9612 3730 c0 -19 2 -27 5 -17 2 9 2 25 0 35 -3 9 -5 1 -5 -18z"/>
<path d="M10392 3690 c0 -14 2 -19 5 -12 2 6 2 18 0 25 -3 6 -5 1 -5 -13z"/>
<path d="M9592 3665 c0 -16 2 -22 5 -12 2 9 2 23 0 30 -3 6 -5 -1 -5 -18z"/>
<path d="M10372 3610 c0 -19 2 -27 5 -17 2 9 2 25 0 35 -3 9 -5 1 -5 -18z"/>
<path d="M9572 3595 c0 -16 2 -22 5 -12 2 9 2 23 0 30 -3 6 -5 -1 -5 -18z"/>
<path d="M10352 3540 c0 -19 2 -27 5 -17 2 9 2 25 0 35 -3 9 -5 1 -5 -18z"/>
<path d="M10332 3465 c0 -16 2 -22 5 -12 2 9 2 23 0 30 -3 6 -5 -1 -5 -18z"/>
<path d="M10312 3405 c0 -16 2 -22 5 -12 2 9 2 23 0 30 -3 6 -5 -1 -5 -18z"/>
<path d="M10282 3313 c-15 -48 -8 -55 8 -8 7 20 10 38 8 41 -3 2 -10 -13 -16
-33z"/>
<path d="M4671 3330 c0 -8 19 -56 42 -105 24 -50 47 -97 50 -105 3 -9 6 -10 6
-2 1 6 -10 35 -24 64 -14 28 -25 58 -25 65 0 7 -4 13 -10 13 -5 0 -10 9 -10
20 0 11 -4 20 -9 20 -5 0 -12 10 -14 23 -2 12 -5 15 -6 7z"/>
<path d="M5795 3324 c65 -47 68 -58 30 -102 -39 -46 -45 -72 -28 -122 12 -35
13 -51 3 -82 -13 -45 -7 -73 24 -106 79 -87 224 -58 266 53 17 44 4 88 -34
123 -19 17 -39 39 -44 49 -9 15 -14 15 -37 5 -35 -16 -37 -16 -64 9 -18 17
-22 28 -17 51 5 25 -1 38 -40 84 -26 30 -54 54 -63 54 -13 -1 -13 -3 4 -16z"/>
<path d="M11878 3303 c89 -2 235 -2 325 0 89 1 16 3 -163 3 -179 0 -252 -2
-162 -3z"/>
<path d="M10261 3243 c-1 -12 -5 -25 -11 -28 -5 -3 -9 -18 -9 -33 1 -20 2 -22
6 -7 2 11 9 30 15 42 6 11 8 27 5 35 -3 7 -6 4 -6 -9z"/>
<path d="M10222 3125 c0 -16 2 -22 5 -12 2 9 2 23 0 30 -3 6 -5 -1 -5 -18z"/>
<path d="M4782 3080 c0 -14 2 -19 5 -12 2 6 2 18 0 25 -3 6 -5 1 -5 -13z"/>
<path d="M10202 3070 c0 -14 2 -19 5 -12 2 6 2 18 0 25 -3 6 -5 1 -5 -13z"/>
<path d="M4801 3049 c-1 -14 18 -57 94 -214 14 -27 25 -45 25 -39 0 10 -33 84
-70 157 -11 22 -20 45 -20 53 0 8 -4 14 -9 14 -5 0 -12 10 -14 23 -2 12 -5 15
-6 6z"/>
<path d="M10163 2972 c-13 -36 -19 -61 -15 -56 13 14 44 103 40 113 -2 5 -13
-20 -25 -57z"/>
<path d="M10132 2880 c0 -14 2 -19 5 -12 2 6 2 18 0 25 -3 6 -5 1 -5 -13z"/>
<path d="M10112 2830 c0 -14 2 -19 5 -12 2 6 2 18 0 25 -3 6 -5 1 -5 -13z"/>
<path d="M4923 2773 c2 -5 11 -25 20 -45 54 -118 67 -141 67 -125 0 10 -11 38
-25 63 -14 25 -25 51 -25 59 0 8 -4 15 -10 15 -5 0 -10 9 -10 20 0 11 -5 20
-11 20 -5 0 -8 -3 -6 -7z"/>
<path d="M11160 2663 c0 -5 60 -7 132 -5 242 4 265 8 66 10 -109 1 -198 -1
-198 -5z"/>
<path d="M5021 2564 c0 -11 3 -14 6 -6 3 7 2 16 -1 19 -3 4 -6 -2 -5 -13z"/>
<path d="M5041 2530 c0 -8 17 -51 38 -95 22 -44 40 -74 40 -67 1 7 -10 33 -24
58 -14 25 -25 51 -25 59 0 8 -4 15 -9 15 -5 0 -12 10 -14 23 -2 12 -5 15 -6 7z"/>
<path d="M5130 2328 c0 -9 9 -20 21 -23 26 -9 38 2 13 12 -10 3 -22 11 -26 17
-5 7 -8 4 -8 -6z"/>
<path d="M11513 1623 c54 -2 139 -2 190 0 51 1 7 3 -98 3 -104 0 -146 -2 -92
-3z"/>
</g>
</svg>
